<?xml version="1.0" encoding="UTF-8"?>
<svg width="277px" height="68px" viewBox="0 0 277 68" version="1.1" xmlns="http://www.w3.org/2000/svg" xmlns:xlink="http://www.w3.org/1999/xlink">
    <!-- Generator: Sketch 50.2 (55047) - http://www.bohemiancoding.com/sketch -->
    <title>logo/edtrio_full</title>
    <desc>Created with Sketch.</desc>
    <defs></defs>
    <g id="Page-1" stroke="none" stroke-width="1" fill="none" fill-rule="evenodd">
        <g id="header-copy" transform="translate(-351.000000, -128.000000)">
            <g id="logo/edtrio_full" transform="translate(351.000000, 128.000000)">
                <g id="edtrio-full">
                    <path d="M51.3537655,67.4692874 L51.3537655,0.665931034" id="Shape" stroke="#737373" stroke-width="7.38"></path>
                    <path d="M115.474571,41.258023 L115.474571,37.5062989 C115.474571,27.5243678 109.840672,20.4906667 99.5126412,20.4906667 C89.2511215,20.4906667 83.4161243,27.0554023 83.4161243,37.5062989 L83.4161243,42.464046 C83.4161243,55.6615172 92.9397599,59.2788046 99.6464463,59.2788046 C105.682542,59.2788046 108.298393,58.9442759 112.657621,58.14 C113.864997,57.9391264 114.066096,57.4701609 114.066096,56.3985747 L114.066096,51.9770115 C114.066096,51.3071724 113.529311,50.9718621 112.85872,50.9718621 C112.792209,50.9718621 112.724915,50.9718621 112.657621,50.9718621 C109.840672,51.239954 105.213051,51.6417011 100.317819,51.6417011 C93.8787429,51.6417011 92.2691695,47.0192644 92.2691695,43.1338851 L92.2691695,42.9330115 L114.13339,42.9330115 C115.072373,42.9330115 115.474571,42.3296092 115.474571,41.258023 Z M106.555014,36.6355862 L92.3364633,36.6355862 L92.3364633,36.3674943 C92.3364633,31.0752184 95.3545113,28.1277701 99.5126412,28.1277701 C103.670771,28.1277701 106.555014,31.1424368 106.555014,36.3674943 L106.555014,36.6355862 Z" id="Shape" fill="#000000"></path>
                    <path d="M153.032328,55.7287356 L153.032328,9.10183908 C153.032328,8.36478161 152.429031,7.76216092 151.691147,7.76216092 L145.520463,7.76216092 C144.783362,7.76216092 144.179282,8.36478161 144.179282,9.10183908 L144.179282,20.9596322 C141.69802,20.6243218 139.350562,20.4906667 137.740989,20.4906667 C126.943466,20.4906667 121.711766,26.8545287 121.711766,37.3054253 L121.711766,42.464046 C121.711766,52.9149425 126.943466,59.2788046 137.740989,59.2788046 C142.032924,59.2788046 147.063525,58.6089655 151.221655,57.5373793 C152.763935,57.1348506 153.032328,56.7331034 153.032328,55.7287356 Z M144.179282,51.5744828 C142.905395,51.8425747 140.15574,52.0434483 137.740989,52.0434483 C131.973285,52.0434483 130.564811,47.9571954 130.564811,42.464046 L130.564811,37.3054253 C130.564811,31.8122759 131.973285,27.726023 137.740989,27.726023 C139.350562,27.726023 142.301316,27.9268966 144.179282,28.1942069 L144.179282,51.5744828 Z" id="Shape" fill="#000000"></path>
                    <path d="M181.133743,57.5373793 L181.133743,53.383908 C181.133743,52.714069 180.596958,52.3787586 179.725268,52.3787586 L174.427056,52.3787586 C171.542814,52.3787586 170.335438,51.9097931 170.335438,49.2304368 L170.335438,27.5915862 L179.792562,27.5915862 C180.529664,27.5915862 181.133743,26.9889655 181.133743,26.251908 L181.133743,22.2993103 C181.133743,21.5622529 180.529664,20.9596322 179.792562,20.9596322 L170.335438,20.9596322 L170.335438,14.3941149 C170.335438,13.7242759 169.799435,13.0544368 169.195356,13.0544368 C169.128845,13.0544368 169.061551,13.0544368 168.994257,13.0544368 L162.757062,14.126023 C162.019178,14.2604598 161.415881,14.7294253 161.415881,15.4657011 L161.415881,49.2304368 C161.415881,57.0011954 165.372912,59.2788046 172.012305,59.2788046 C174.829254,59.2788046 178.2495,59.0107126 179.859073,58.7434023 C180.730763,58.6089655 181.133743,58.2072184 181.133743,57.5373793 Z" id="Shape" fill="#000000"></path>
                    <path d="M204.540243,26.7208736 L204.540243,21.6294713 C204.540243,20.6243218 203.400161,20.4906667 202.594983,20.4906667 C196.82728,20.4906667 193.272446,21.026069 188.980511,22.4329655 C187.773136,22.8354943 187.169839,23.5717701 187.169839,24.4432644 L187.169839,57.3365057 C187.169839,58.0727816 187.773136,58.7434023 188.51102,58.7434023 L194.748215,58.7434023 C195.486099,58.7434023 196.022102,58.0727816 196.022102,57.3365057 L196.022102,28.3958621 C197.632458,28.0605517 200.382113,27.9268966 202.594983,27.9268966 C204.137263,27.9268966 204.540243,27.457931 204.540243,26.7208736 Z" id="Shape" fill="#000000"></path>
                    <path d="M219.227503,57.4029425 L219.227503,49.8330575 C219.227503,49.096 218.624206,48.5605977 217.886322,48.5605977 L211.91752,48.5605977 C211.179636,48.5605977 210.576339,49.096 210.576339,49.8330575 L210.576339,57.4029425 C210.576339,58.14 211.179636,58.7434023 211.91752,58.7434023 L217.886322,58.7434023 C218.624206,58.7434023 219.227503,58.14 219.227503,57.4029425 Z" id="Shape" fill="#000000"></path>
                    <path d="M237.201986,14.5949885 L237.201986,8.70009195 C237.201986,7.96303448 236.597907,7.35963218 235.860805,7.35963218 L229.355218,7.35963218 C228.617333,7.35963218 227.946743,7.96303448 227.946743,8.70009195 L227.946743,14.5949885 C227.946743,15.332046 228.617333,15.9346667 229.355218,15.9346667 L235.860805,15.9346667 C236.597907,15.9346667 237.201986,15.332046 237.201986,14.5949885 Z M237.000887,57.3365057 L237.000887,22.2993103 C237.000887,21.5622529 236.396808,20.9596322 235.658924,20.9596322 L229.489023,20.9596322 C228.751138,20.9596322 228.147842,21.5622529 228.147842,22.2993103 L228.147842,57.3365057 C228.147842,58.0727816 228.751138,58.7434023 229.489023,58.7434023 L235.658924,58.7434023 C236.396808,58.7434023 237.000887,58.0727816 237.000887,57.3365057 Z" id="Shape" fill="#000000"></path>
                    <path d="M276.838808,42.5977011 L276.838808,37.1717701 C276.838808,27.5915862 271.338715,20.4906667 260.809585,20.4906667 C250.279672,20.4906667 244.780362,27.5915862 244.780362,37.1717701 L244.780362,42.5977011 C244.780362,52.1778851 250.279672,59.2788046 260.809585,59.2788046 C271.338715,59.2788046 276.838808,52.1778851 276.838808,42.5977011 Z M267.985763,42.5977011 C267.985763,48.0916322 265.5045,51.6417011 260.809585,51.6417011 C256.114669,51.6417011 253.633407,48.0916322 253.633407,42.5977011 L253.633407,37.1717701 C253.633407,31.6778391 256.114669,28.1277701 260.809585,28.1277701 C265.5045,28.1277701 267.985763,31.6778391 267.985763,37.1717701 L267.985763,42.5977011 Z" id="Shape" fill="#000000"></path>
                    <path d="M30.0505876,57.5889655 L30.0505876,53.3010575 C30.0505876,52.5647816 29.4465085,51.9613793 28.7086243,51.9613793 L15.0268588,51.9613793 C11.1371215,51.9613793 9.72864689,50.6217011 9.72864689,46.2001379 L9.72864689,37.5578851 L27.9042288,37.5578851 C28.642113,37.5578851 29.2454096,36.9552644 29.2454096,36.2182069 L29.2454096,31.3948966 C29.2454096,30.6578391 28.642113,30.0552184 27.9042288,30.0552184 L9.72864689,30.0552184 L9.72864689,22.8198621 C9.72864689,18.3982989 11.1371215,17.0586207 15.0268588,17.0586207 L28.7086243,17.0586207 C29.4465085,17.0586207 30.0505876,16.456 30.0505876,15.7189425 L30.0505876,11.4310345 C30.0505876,10.4931034 29.7149011,10.1585747 28.7086243,10.0241379 C26.563048,9.6896092 23.9471977,9.0862069 15.9658418,9.0862069 C7.24738418,9.0862069 0.473403955,11.4310345 0.473403955,22.8198621 L0.473403955,46.2001379 C0.473403955,57.5889655 7.24738418,59.9337931 15.9658418,59.9337931 C23.9471977,59.9337931 26.563048,59.3303908 28.7086243,58.9958621 C29.7149011,58.8614253 30.0505876,58.5268966 30.0505876,57.5889655 Z" id="Shape" fill="#000000"></path>
                </g>
            </g>
        </g>
    </g>
</svg>