<?xml version="1.0" encoding="UTF-8"?>
<svg width="242px" height="86px" viewBox="0 0 242 86" version="1.1" xmlns="http://www.w3.org/2000/svg" xmlns:xlink="http://www.w3.org/1999/xlink">
    <!-- Generator: Sketch 50.2 (55047) - http://www.bohemiancoding.com/sketch -->
    <title>logo/hpi</title>
    <desc>Created with Sketch.</desc>
    <defs>
        <rect id="path-1" x="0" y="0" width="240.481481" height="86"></rect>
        <polygon id="path-3" points="0 0 146.623341 0 146.623341 106.180033 0 106.180033"></polygon>
    </defs>
    <g id="logo/hpi" stroke="none" stroke-width="1" fill="none" fill-rule="evenodd">
        <g id="Hasso-Plattner-Institut_-_logo_and_wordmark" transform="translate(0.344184, 0.000000)">
            <mask id="mask-2" fill="white">
                <use xlink:href="#path-1"></use>
            </mask>
            <g id="Mask"></g>
            <g mask="url(#mask-2)" id="Group">
                <g transform="translate(46.185185, 15.722222)">
                    <g transform="translate(74.327655, 54.210398) scale(-1, 1) rotate(-180.000000) translate(-74.327655, -54.210398) translate(0.827655, 0.710398)">
                        <g id="Clipped">
                            <g>
                                <mask id="mask-4" fill="white">
                                    <use xlink:href="#path-3"></use>
                                </mask>
                                <g id="Shape"></g>
                                <g id="Group" mask="url(#mask-4)" fill-rule="nonzero">
                                    <g transform="translate(0.594580, 23.426438)" id="Shape">
                                        <path d="M74.6792035,52.9413717 L76.6222898,52.9413717 C76.8375277,52.9413717 77.0147124,53.1173673 77.0147124,53.3337942 L77.0147124,59.3372649 L82.5865183,59.3372649 L82.5865183,53.3337942 C82.5865183,53.1173673 82.7631084,52.9413717 82.9789408,52.9413717 L84.9220271,52.9413717 C85.1372649,52.9413717 85.3144497,53.1173673 85.3144497,53.3337942 L85.3144497,67.146474 C85.3144497,67.362901 85.1372649,67.5192754 84.9220271,67.5192754 L82.9789408,67.5192754 C82.7631084,67.5192754 82.5865183,67.362901 82.5865183,67.146474 L82.5865183,61.7310426 L77.0147124,61.7310426 L77.0147124,67.146474 C77.0147124,67.362901 76.8375277,67.5192754 76.6222898,67.5192754 L74.6792035,67.5192754 C74.4633711,67.5192754 74.286781,67.362901 74.286781,67.146474 L74.286781,53.3337942 C74.286781,53.1173673 74.4633711,52.9413717 74.6792035,52.9413717 Z M91.0432246,52.7844027 C91.9850387,52.7844027 92.9072317,53.0977461 93.8098037,53.6471377 L93.8098037,53.3337942 C93.8098037,53.1173673 93.9863938,52.9413717 94.2022262,52.9413717 L95.8700221,52.9413717 C96.0858545,52.9413717 96.2624447,53.1173673 96.2624447,53.3337942 L96.2624447,60.3974004 C96.2624447,62.9083103 94.7319967,64.145036 91.9457965,64.145036 C90.5919386,64.145036 89.4539132,63.9880669 88.6696626,63.8305033 C88.4139934,63.7722345 88.2968612,63.6348866 88.2968612,63.4190542 L88.2968612,62.1627074 C88.2968612,61.8886062 88.4532356,61.8297428 88.6494469,61.8297428 L88.7481471,61.8297428 C89.3950498,61.9082273 90.6900442,61.9861173 91.9457965,61.9861173 C93.103443,61.9861173 93.6724558,61.6721792 93.6724558,60.3974004 L93.6724558,59.5334762 L92.4369192,59.5334762 C89.0222483,59.5334762 87.6487694,58.3758296 87.6487694,56.139021 L87.6487694,56.0611311 C87.6487694,53.4122788 89.4152655,52.7844027 91.0432246,52.7844027 Z M90.258974,56.139021 C90.258974,57.2378042 90.650802,57.8074115 92.4369192,57.8074115 L93.6724558,57.8074115 L93.6724558,55.3940127 C93.103443,55.0794801 92.3774613,54.8446211 91.6716952,54.8446211 C90.6900442,54.8446211 90.258974,55.0996958 90.258974,56.0611311 L90.258974,56.139021 Z M100.068944,58.494151 L102.757038,56.8453816 C103.384914,56.4529591 103.620368,56.2181001 103.620368,55.8452987 C103.620368,55.3149336 103.443778,54.9034845 102.227268,54.9034845 C101.638634,54.9034845 99.8721377,55.0009956 98.9309181,55.1193169 L98.8524336,55.1193169 C98.6568169,55.1193169 98.5188744,54.9617533 98.5188744,54.8047843 L98.5188744,53.6275166 C98.5188744,53.3926576 98.6568169,53.2356886 98.8916759,53.1762306 C99.9904591,52.8819137 101.638634,52.7844027 102.403858,52.7844027 C104.974226,52.7844027 106.249599,54.1376659 106.249599,55.8452987 C106.249599,56.8453816 106.01474,57.8264381 104.365971,58.8271156 L101.795603,60.3974004 C101.305075,60.6917174 101.010758,60.8879287 101.010758,61.2012721 C101.010758,61.8101217 101.422801,62.0259541 102.364616,62.0259541 C103.48302,62.0259541 105.05271,61.8683905 105.602102,61.789906 L105.680586,61.789906 C105.876798,61.789906 105.994524,61.9272539 105.994524,62.1627074 L105.994524,63.3007329 C105.994524,63.536781 105.876798,63.69375 105.641344,63.7520188 C104.640666,63.9684458 103.738095,64.145036 102.148783,64.145036 C99.6568999,64.145036 98.4207688,63.1639795 98.4207688,61.2012721 C98.4207688,60.0632467 99.1069137,59.0827848 100.068944,58.494151 Z M113.960702,58.8271156 L111.390335,60.3974004 C110.899806,60.6917174 110.605489,60.8879287 110.605489,61.2012721 C110.605489,61.8101217 111.017533,62.0259541 111.959347,62.0259541 C113.077157,62.0259541 114.647442,61.8683905 115.196834,61.789906 L115.275318,61.789906 C115.471529,61.789906 115.589256,61.9272539 115.589256,62.1627074 L115.589256,63.3007329 C115.589256,63.536781 115.471529,63.69375 115.236076,63.7520188 C114.235398,63.9684458 113.332826,64.145036 111.74292,64.145036 C109.251632,64.145036 108.015501,63.1639795 108.015501,61.2012721 C108.015501,60.0632467 108.70224,59.0827848 109.663675,58.494151 L112.35177,56.8453816 C112.979646,56.4529591 113.2151,56.2181001 113.2151,55.8452987 C113.2151,55.3149336 113.038509,54.9034845 111.821999,54.9034845 C111.233366,54.9034845 109.467464,55.0009956 108.52565,55.1193169 L108.447165,55.1193169 C108.250954,55.1193169 108.113606,54.9617533 108.113606,54.8047843 L108.113606,53.6275166 C108.113606,53.3926576 108.250954,53.2356886 108.486408,53.1762306 C109.585191,52.8819137 111.233366,52.7844027 111.99859,52.7844027 C114.568957,52.7844027 115.844331,54.1376659 115.844331,55.8452987 C115.844331,56.8453816 115.608877,57.8264381 113.960702,58.8271156 Z M122.358545,52.7844027 C125.439062,52.7844027 127.047995,54.8636477 127.047995,57.6700636 L127.047995,59.259375 C127.047995,62.0651963 125.439062,64.145036 122.358545,64.145036 C119.278028,64.145036 117.669096,62.0651963 117.669096,59.259375 L117.669096,57.6700636 C117.669096,54.8636477 119.278028,52.7844027 122.358545,52.7844027 Z M120.259085,59.259375 C120.259085,60.8683075 120.984472,61.9082273 122.358545,61.9082273 C123.732024,61.9082273 124.458006,60.8683075 124.458006,59.259375 L124.458006,57.6700636 C124.458006,56.0611311 123.732024,55.0212113 122.358545,55.0212113 C120.984472,55.0212113 120.259085,56.0611311 120.259085,57.6700636 L120.259085,59.259375 Z M84.4118778,43.9412196 L84.4118778,44.1178097 C84.4118778,47.5907494 81.7826466,48.6502904 78.7609928,48.6502904 C77.3280559,48.6502904 75.9355503,48.5515902 74.9152517,48.3946211 C74.5228291,48.3363523 74.286781,48.1984098 74.286781,47.8059873 L74.286781,34.3072456 C74.286781,34.0912942 74.4633711,33.9147636 74.6792035,33.9147636 L76.641911,33.9147636 C76.8571488,33.9147636 77.0147124,34.0912942 77.0147124,34.3072456 L77.0147124,39.4285384 C77.4659983,39.4089173 78.2502489,39.3494593 78.7609928,39.3494593 C81.7826466,39.3494593 84.4118778,40.4678637 84.4118778,43.941398 L84.4118778,43.9412196 Z M81.7041621,43.9412196 C81.7041621,42.3709347 80.8794801,41.5860896 78.7609928,41.5860896 C78.426839,41.5860896 77.3280559,41.6253319 77.0147124,41.6455476 L77.0147124,46.3147815 C77.3678927,46.3540238 78.3483545,46.3938606 78.7609928,46.3938606 C80.7225111,46.3938606 81.7041621,45.7653899 81.7041621,44.1178097 L81.7041621,43.9412196 Z M86.7265763,33.914823 L88.5513413,33.914823 C88.7677683,33.914823 88.9241427,34.1110937 88.9241427,34.3270451 L88.9241427,48.4542575 C88.9241427,48.6694953 88.7677683,48.84668 88.5513413,48.84668 L86.7265763,48.84668 C86.5107439,48.84668 86.3341538,48.6694953 86.3341538,48.4542575 L86.3341538,34.3270451 C86.3341538,34.1110937 86.5107439,33.914823 86.7265763,33.914823 Z M97.1846377,34.6208863 L97.1846377,34.307305 C97.1846377,34.0913537 97.3612279,33.914823 97.5770603,33.914823 L99.2448562,33.914823 C99.4606886,33.914823 99.6372788,34.0913537 99.6372788,34.307305 L99.6372788,41.3703166 C99.6372788,43.8818211 98.1068308,45.1185467 95.3206305,45.1185467 C93.9667727,45.1185467 92.8287472,44.9609831 92.0439021,44.8040141 C91.7888274,44.7457453 91.6716952,44.6078028 91.6716952,44.3919704 L91.6716952,43.1362182 C91.6716952,42.862117 91.8280697,42.8032536 92.024281,42.8032536 L92.1223866,42.8032536 C92.7698838,42.8811435 94.0648783,42.959628 95.3206305,42.959628 C96.4782771,42.959628 97.0472898,42.6462846 97.0472898,41.3703166 L97.0472898,40.506987 L95.8111587,40.506987 C92.3970824,40.506987 91.0236034,39.3493404 91.0236034,37.1125318 L91.0236034,37.0340473 C91.0236034,34.3849571 92.789505,33.757854 94.4180586,33.757854 C95.3598728,33.757854 96.2814712,34.0714353 97.1846377,34.620708 L97.1846377,34.6208863 Z M93.6332135,37.0342257 L93.6332135,37.1127102 C93.6332135,38.2114934 94.0256361,38.7811007 95.8111587,38.7811007 L97.0472898,38.7811007 L97.0472898,36.3677019 C96.4782771,36.0531692 95.7522954,35.8181914 95.0459347,35.8181914 C94.0648783,35.8181914 93.6332135,36.073385 93.6332135,37.0342257 Z M103.050761,36.8772566 C103.050761,34.2480849 103.953927,33.7580324 106.17052,33.7580324 C106.602779,33.7580324 107.03385,33.8161228 107.504757,33.895083 C107.759831,33.9345631 107.877558,34.0518142 107.877558,34.2480849 L107.877558,35.4843944 C107.877558,35.6806651 107.721184,35.7786518 107.466109,35.7786518 L106.425595,35.7786518 C105.719234,35.7786518 105.660965,35.8959624 105.660965,36.8772566 L105.660965,43.0388855 L106.862016,43.0388855 C107.078443,43.0388855 107.255033,43.2154757 107.255033,43.4301189 L107.255033,44.5883601 C107.255033,44.8041925 107.078443,44.9807826 106.862016,44.9807826 L105.660965,44.9807826 L105.660965,47.0023534 C105.660965,47.1985647 105.523023,47.2960758 105.347027,47.2960758 L105.268543,47.2960758 L103.443183,46.9821377 C103.227351,46.94349 103.050761,46.8055476 103.050761,46.5903097 L103.050761,44.9807826 L101.206969,44.9807826 C100.990542,44.9807826 100.813952,44.8041925 100.813952,44.5883601 L100.813952,43.7054093 C100.813952,43.4895769 100.990542,43.3528236 101.206969,43.3129867 L103.050761,43.0388855 L103.050761,36.8772566 Z M114.725926,35.7786518 L113.686007,35.7786518 C112.979051,35.7786518 112.920783,35.8959624 112.920783,36.8772566 L112.920783,43.0388855 L114.686684,43.0388855 C114.902517,43.0388855 115.079107,43.2154757 115.079107,43.4301189 L115.079107,44.5883601 C115.079107,44.8041925 114.902517,44.9807826 114.686684,44.9807826 L112.920783,44.9807826 L112.920783,47.0023534 C112.920783,47.1985647 112.783435,47.2960758 112.60625,47.2960758 L112.52836,47.2960758 L110.703595,46.9821377 C110.487763,46.94349 110.311173,46.8055476 110.311173,46.5903097 L110.311173,44.9807826 L109.03461,44.9807826 C108.818778,44.9807826 108.642188,44.8041925 108.642188,44.5883601 L108.642188,43.7054093 C108.642188,43.4895769 108.818778,43.3528236 109.03461,43.3129867 L110.311173,43.0388855 L110.311173,36.8772566 C110.311173,34.2480849 111.213744,33.7580324 113.430337,33.7580324 C113.862597,33.7580324 114.294262,33.8161228 114.764574,33.895083 C115.020243,33.9345631 115.137376,34.0518142 115.137376,34.2480849 L115.137376,35.4843944 C115.137376,35.6806651 114.981001,35.7786518 114.725926,35.7786518 Z M126.322013,34.3270451 L126.322013,40.7235329 C126.322013,43.2154162 125.753001,45.1186657 122.927558,45.1186657 C121.632564,45.1186657 120.886961,44.9028332 119.748935,44.1768515 L119.748935,44.5883006 C119.748935,44.804133 119.572345,44.9807232 119.356513,44.9807232 L117.649475,44.9807232 C117.433642,44.9807232 117.257052,44.804133 117.257052,44.5883006 L117.257052,34.3270451 C117.257052,34.1110938 117.433642,33.914823 117.649475,33.914823 L119.454618,33.914823 C119.669856,33.914823 119.846446,34.1110938 119.846446,34.3270451 L119.846446,42.2147387 C120.671128,42.6464035 121.39711,42.9205047 122.064228,42.9205047 C123.575055,42.9205047 123.73143,42.4305711 123.73143,40.7235329 L123.73143,34.3270451 C123.73143,34.1110937 123.908614,33.914823 124.124447,33.914823 L125.929591,33.914823 C126.145423,33.914823 126.322013,34.1110937 126.322013,34.3270451 Z M137.387735,38.5450525 C137.662431,38.5450525 137.780158,38.7216427 137.780158,39.0361753 L137.780158,40.1349585 C137.780158,43.0579121 136.132577,45.1187251 133.110924,45.1187251 C130.108891,45.1187251 128.401853,43.1958545 128.401853,40.1349585 L128.401853,38.682995 C128.401853,34.8171571 131.187459,33.7580324 133.149571,33.7580324 C134.915473,33.7580324 135.680697,33.8556029 136.956665,34.0913537 C137.309251,34.1505738 137.368114,34.287565 137.368114,34.6011463 L137.368114,35.8959624 C137.368114,36.0924115 137.211145,36.1911117 137.014934,36.1911117 L136.956665,36.1911117 C136.132577,36.1120326 134.77872,35.9946626 133.345783,35.9946626 C131.462154,35.9946626 130.991247,37.3487583 130.991247,38.4867837 L130.991247,38.5450525 L137.387735,38.5450525 Z M131.011463,40.4679231 C131.011463,42.0179923 131.893819,42.8813219 133.110924,42.8813219 C134.327434,42.8813219 135.171142,41.9983711 135.171142,40.4679231 L135.171142,40.3894386 L131.011463,40.3894386 L131.011463,40.4679231 Z M145.158296,45.1187251 C144.372857,45.1187251 143.313316,44.9219192 142.351881,44.176911 L142.351881,44.5883601 C142.351881,44.8041925 142.17529,44.9807826 141.960053,44.9807826 L140.253014,44.9807826 C140.036587,44.9807826 139.859997,44.8041925 139.859997,44.5883601 L139.859997,34.3271045 C139.859997,34.1111532 140.036587,33.9148825 140.253014,33.9148825 L142.057564,33.9148825 C142.273396,33.9148825 142.449986,34.1111532 142.449986,34.3271045 L142.449986,42.2147981 C143.274668,42.6464629 144.098161,42.9205642 145.158296,42.9205642 C145.373534,42.9205642 145.550719,43.0971543 145.550719,43.3129867 L145.550719,44.7268971 C145.550719,44.9415404 145.373534,45.1187251 145.158296,45.1187251 Z M76.6627212,29.4670105 L74.701203,29.4670105 C74.4829923,29.4670105 74.3052129,29.3098037 74.3052129,29.0942685 L74.3052129,15.2809942 C74.3052129,15.0649834 74.4829923,14.8885122 74.701203,14.8885122 L76.6627212,14.8885122 C76.880932,14.8885122 77.0593059,15.0649834 77.0593059,15.2809942 L77.0593059,29.0942685 C77.0593059,29.3098037 76.880932,29.4670105 76.6627212,29.4670105 Z M86.1551853,26.0918197 C84.8471101,26.0918197 84.0943722,25.8762846 82.9450498,25.150065 L82.9450498,25.5622871 C82.9450498,25.7775843 82.7666759,25.954115 82.5484652,25.954115 L80.8241842,25.954115 C80.6059735,25.954115 80.4281941,25.7775843 80.4281941,25.5622871 L80.4281941,15.3010315 C80.4281941,15.0845451 80.6059735,14.8883338 80.8241842,14.8883338 L82.64776,14.8883338 C82.8659707,14.8883338 83.04375,15.0845451 83.04375,15.3010315 L83.04375,23.1881305 C83.8761615,23.6198548 84.6098728,23.893956 85.2829369,23.893956 C86.8092229,23.893956 86.9679757,23.403844 86.9679757,21.6969842 L86.9679757,15.301091 C86.9679757,15.0846045 87.1463496,14.8883933 87.3639657,14.8883933 L89.1875415,14.8883933 C89.4051576,14.8883933 89.5841261,15.0846045 89.5841261,15.301091 L89.5841261,21.6969842 C89.5841261,24.188927 89.0091676,26.0917602 86.1551853,26.0917602 L86.1551853,26.0918197 Z M98.3630946,20.7747912 L95.7665653,22.3443626 C95.2706858,22.6388579 94.973396,22.8348908 94.973396,23.1484721 C94.973396,23.7569649 95.3901963,23.9729757 96.3415238,23.9729757 C97.4712251,23.9729757 99.0563744,23.816185 99.6111173,23.7372248 L99.6907909,23.7372248 C99.888786,23.7372248 100.007702,23.8742754 100.007702,24.1099668 L100.007702,25.2480517 C100.007702,25.4838025 99.888786,25.6405932 99.6509541,25.7000512 C98.6395741,25.9153485 97.7280835,26.0918197 96.1233131,26.0918197 C93.607052,26.0918197 92.3578402,25.1110011 92.3578402,23.1484721 C92.3578402,22.0103872 93.0517146,21.0298064 94.0226632,20.441232 L96.7375138,18.7931762 C97.3719303,18.3999212 97.6097622,18.1658352 97.6097622,17.791904 C97.6097622,17.2621336 97.4307937,16.8500899 96.2023921,16.8500899 C95.6084071,16.8500899 93.8246681,16.9485523 92.8733407,17.0658628 L92.793667,17.0658628 C92.595672,17.0658628 92.457135,16.9095478 92.457135,16.7525194 L92.457135,15.5751922 C92.457135,15.339263 92.595672,15.1822345 92.8335039,15.1243819 C93.9435841,14.8296488 95.6084071,14.7321377 96.3813606,14.7321377 C98.9772954,14.7321377 100.265155,16.0859361 100.265155,17.791904 C100.265155,18.7931762 100.027323,19.7742326 98.3630946,20.7747912 Z M108.667754,16.7525194 L107.617727,16.7525194 C106.904231,16.7525194 106.844179,16.8695921 106.844179,17.851362 L106.844179,24.0123963 L108.627918,24.0123963 C108.846128,24.0123963 109.024502,24.188927 109.024502,24.4044621 L109.024502,25.5622276 C109.024502,25.7775249 108.846128,25.9540556 108.627918,25.9540556 L106.844179,25.9540556 L106.844179,27.9758642 C106.844179,28.1716593 106.706236,28.269646 106.527268,28.269646 L106.448189,28.269646 L104.605586,27.9561242 C104.386781,27.9166441 104.209002,27.7795935 104.209002,27.5635827 L104.209002,25.9540556 L102.346184,25.9540556 C102.128567,25.9540556 101.949599,25.7775249 101.949599,25.5622276 L101.949599,24.6789795 C101.949599,24.4629687 102.128567,24.3259181 102.346184,24.2864381 L104.209002,24.0123963 L104.209002,17.851362 C104.209002,15.2219524 105.120492,14.7321377 107.359679,14.7321377 C107.796101,14.7321377 108.231928,14.7897525 108.707591,14.8689505 C108.965044,14.9081928 109.08396,15.0256817 109.08396,15.2219524 L109.08396,16.4587376 C109.08396,16.6550083 108.925207,16.7525194 108.667754,16.7525194 Z M113.741303,25.954234 L111.917727,25.954234 C111.699516,25.954234 111.521142,25.7777033 111.521142,25.562406 L111.521142,15.3011504 C111.521142,15.084664 111.699516,14.8884527 111.917727,14.8884527 L113.741303,14.8884527 C113.958919,14.8884527 114.137293,15.084664 114.137293,15.3011504 L114.137293,25.562406 C114.137293,25.7777033 113.958919,25.954234 113.741303,25.954234 Z M113.800166,29.9374419 L111.87789,29.9374419 C111.660274,29.9374419 111.461684,29.7609707 111.461684,29.5449599 L111.461684,27.8187763 C111.461684,27.6028249 111.660274,27.4262942 111.87789,27.4262942 L113.800166,27.4262942 C114.018377,27.4262942 114.196156,27.6028249 114.196156,27.8187763 L114.196156,29.5449599 C114.196156,29.7609707 114.018377,29.9374419 113.800166,29.9374419 Z M123.193335,16.7526383 L122.143308,16.7526383 C121.429812,16.7526383 121.370354,16.869711 121.370354,17.8514809 L121.370354,24.0125152 L123.154093,24.0125152 C123.371709,24.0125152 123.550678,24.1890459 123.550678,24.404581 L123.550678,25.5623465 C123.550678,25.7776438 123.371709,25.9541745 123.154093,25.9541745 L121.370354,25.9541745 L121.370354,27.9759831 C121.370354,28.1717782 121.231222,28.2697649 121.053443,28.2697649 L120.973769,28.2697649 L119.130572,27.9562431 C118.912956,27.916763 118.734582,27.7797124 118.734582,27.5637016 L118.734582,25.9541745 L116.871764,25.9541745 C116.653554,25.9541745 116.47518,25.7776438 116.47518,25.5623465 L116.47518,24.6790985 C116.47518,24.4630877 116.653554,24.3260371 116.871764,24.286557 L118.734582,24.0125152 L118.734582,17.8514809 C118.734582,15.2220713 119.646073,14.7322566 121.88526,14.7322566 C122.321681,14.7322566 122.757508,14.7898714 123.233767,14.8690694 C123.490625,14.9083117 123.609541,15.0258006 123.609541,15.2220713 L123.609541,16.4588565 C123.609541,16.6551272 123.451383,16.7526383 123.193335,16.7526383 Z M134.746612,25.9543529 L132.923631,25.9543529 C132.70542,25.9543529 132.527641,25.7587956 132.527641,25.5427848 L132.527641,17.6943335 C131.972304,17.4005517 131.020976,16.9095478 130.288454,16.9095478 C129.673659,16.9095478 129.336532,17.0277503 129.058863,17.2621336 C128.683089,17.596763 128.603415,18.1658352 128.603415,19.1457024 L128.603415,25.5427848 C128.603415,25.7587956 128.425041,25.9543529 128.207425,25.9543529 L126.38385,25.9543529 C126.165639,25.9543529 125.987265,25.7587956 125.987265,25.5427848 L125.987265,19.1457024 C125.987265,17.517565 126.245313,16.3005794 126.978429,15.5751922 C127.553388,15.005466 128.425041,14.7516399 129.416206,14.7516399 C130.684444,14.7516399 131.49664,15.0649239 132.527641,15.7315072 L132.527641,15.2809347 C132.527641,15.0649239 132.70542,14.8884527 132.923631,14.8884527 L134.746612,14.8884527 C134.964823,14.8884527 135.143197,15.0649239 135.143197,15.2809347 L135.143197,25.5427848 C135.143197,25.7587956 134.964823,25.9543529 134.746612,25.9543529 Z M144.140376,16.7526383 L143.089754,16.7526383 C142.376258,16.7526383 142.3168,16.869711 142.3168,17.8514809 L142.3168,24.0125152 L144.100539,24.0125152 C144.31875,24.0125152 144.496529,24.1890459 144.496529,24.404581 L144.496529,25.5623465 C144.496529,25.7776438 144.31875,25.9541745 144.100539,25.9541745 L142.3168,25.9541745 L142.3168,27.9759831 C142.3168,28.1717782 142.178263,28.2697649 141.999889,28.2697649 L141.92081,28.2697649 L140.078208,27.9562431 C139.859997,27.916763 139.681623,27.7797124 139.681623,27.5637016 L139.681623,25.9541745 L137.818805,25.9541745 C137.600595,25.9541745 137.422221,25.7776438 137.422221,25.5623465 L137.422221,24.6790985 C137.422221,24.4630877 137.600595,24.3260371 137.818805,24.286557 L139.681623,24.0125152 L139.681623,17.8514809 C139.681623,15.2220713 140.593114,14.7322566 142.832895,14.7322566 C143.268128,14.7322566 143.703955,14.7898714 144.179618,14.8690694 C144.437666,14.9083117 144.556582,15.0258006 144.556582,15.2220713 L144.556582,16.4588565 C144.556582,16.6551272 144.397829,16.7526383 144.140376,16.7526383 Z" fill="#4F5358"></path>
                                        <polygon fill="#B00C36" points="0.00279452434 14.9168142 58.9916358 14.9168142 58.9916358 73.90625 0.00279452434 73.90625"></polygon>
                                        <polygon fill="#F89C0E" points="16.8575221 31.7713634 67.4199806 31.7713634 67.4199806 82.3338219 16.8575221 82.3338219"></polygon>
                                        <polygon fill="#E25617" points="16.8575221 31.7713634 58.9918142 31.7713634 58.9918142 73.90625 16.8575221 73.90625"></polygon>
                                        <path d="M33.9962804,67.3599281 L32.0539076,67.3599281 C31.8378968,67.3599281 31.6613662,67.2029591 31.6613662,66.9871267 L31.6613662,61.5711007 L26.0890252,61.5711007 L26.0890252,66.9871267 C26.0890252,67.2029591 25.9125539,67.3599281 25.6965431,67.3599281 L23.7541704,67.3599281 C23.5381596,67.3599281 23.3616289,67.2029591 23.3616289,66.9871267 L23.3616289,53.1738523 C23.3616289,52.9580199 23.5381596,52.7814298 23.7541704,52.7814298 L25.6965431,52.7814298 C25.9125539,52.7814298 26.0890252,52.9580199 26.0890252,53.1738523 L26.0890252,59.1779176 L31.6613662,59.1779176 L31.6613662,53.1738523 C31.6613662,52.9580199 31.8378968,52.7814298 32.0539076,52.7814298 L33.9962804,52.7814298 C34.2122317,52.7814298 34.3887624,52.9580199 34.3887624,53.1738523 L34.3887624,66.9871267 C34.3887624,67.2029591 34.2122317,67.3599281 33.9962804,67.3599281 Z M41.838786,67.5168971 C40.4062058,67.5168971 39.0133435,67.4187915 37.9925691,67.2618225 C37.6000871,67.2029591 37.3650498,67.0650166 37.3650498,66.6731886 L37.3650498,53.1738523 C37.3650498,52.9580199 37.5415805,52.7814298 37.7575318,52.7814298 L39.7194068,52.7814298 C39.9354176,52.7814298 40.0922082,52.9580199 40.0922082,53.1738523 L40.0922082,58.2949668 C40.5434942,58.2753457 41.3285177,58.2164823 41.838786,58.2164823 C44.8604397,58.2164823 47.4896114,59.3348866 47.4896114,62.8078263 L47.4896114,62.9844165 C47.4896114,66.4573562 44.8604397,67.5168971 41.838786,67.5168971 Z M44.7814795,62.8078263 C44.7814795,61.2381361 43.9576894,60.4526963 41.838786,60.4526963 C41.5050484,60.4526963 40.4062058,60.4925332 40.0922082,60.5121543 L40.0922082,65.1819829 C40.4452102,65.2212251 41.4265044,65.2604674 41.838786,65.2604674 C43.8008988,65.2604674 44.7814795,64.6325913 44.7814795,62.9844165 L44.7814795,62.8078263 Z M52.0965929,67.3599281 L50.1537445,67.3599281 C49.9377337,67.3599281 49.761203,67.2029591 49.761203,66.9871267 L49.761203,53.1738523 C49.761203,52.9580199 49.9377337,52.7814298 50.1537445,52.7814298 L52.0965929,52.7814298 C52.312128,52.7814298 52.4890749,52.9580199 52.4890749,53.1738523 L52.4890749,66.9871267 C52.4890749,67.2029591 52.312128,67.3599281 52.0965929,67.3599281 Z" fill="#FFFFFF"></path>
                                    </g>
                                </g>
                            </g>
                        </g>
                    </g>
                </g>
            </g>
        </g>
    </g>
</svg>