<?xml version="1.0" encoding="UTF-8"?>
<svg width="242px" height="86px" viewBox="0 0 242 86" version="1.1" xmlns="http://www.w3.org/2000/svg" xmlns:xlink="http://www.w3.org/1999/xlink">
    <!-- Generator: Sketch 50.2 (55047) - http://www.bohemiancoding.com/sketch -->
    <title>logo/serlo</title>
    <desc>Created with Sketch.</desc>
    <defs>
        <polygon id="path-1" points="0 0.252677614 23.6758924 0.252677614 23.6758924 28.1647022 0 28.1647022"></polygon>
        <polygon id="path-3" points="0.0997835162 0.312225841 11.7865255 0.312225841 11.7865255 29.6233923 0.0997835162 29.6233923"></polygon>
        <polygon id="path-5" points="0.375475715 0.547441339 22.2734512 0.547441339 22.2734512 21.6894762 0.375475715 21.6894762"></polygon>
    </defs>
    <g id="logo/serlo" stroke="none" stroke-width="1" fill="none" fill-rule="evenodd">
        <g id="Group-4" transform="translate(0.381221, 0.000000)">
            <rect id="Rectangle" x="0" y="0" width="240.481481" height="86"></rect>
            <g id="Group-2" transform="translate(33.046296, 0.000000)">
                <g id="Group" transform="translate(66.338684, 39.639847)">
                    <g id="Group-3" transform="translate(0.000000, 2.102133)">
                        <mask id="mask-2" fill="white">
                            <use xlink:href="#path-1"></use>
                        </mask>
                        <g id="Clip-2"></g>
                        <path d="M10.0980918,28.1647022 C8.40820971,28.1647022 6.93318403,28.0262928 5.67301478,27.7486693 C4.41204083,27.4718505 3.36592332,27.0807635 2.53385755,26.576213 C1.70179178,26.0716624 1.07170715,25.493079 0.642798974,24.8364391 C0.213890795,24.1564627 -0.000160941155,23.4241804 -0.000160941155,22.6436158 C-0.000160941155,22.0384771 0.12537316,21.5089807 0.378050774,21.0543219 C0.655674266,20.6012726 1.02101069,20.2351314 1.47486475,19.957508 C1.97941527,19.6307974 2.54673284,19.4030657 3.17681746,19.2767269 C3.80690209,19.1262469 4.51343376,19.0497998 5.29480307,19.0497998 C5.29480307,20.2101856 5.43321246,21.2184819 5.71083595,22.0762983 C5.96270886,22.9333099 6.32804528,23.6390369 6.80764992,24.1934792 C7.28644986,24.773672 7.86020508,25.2017755 8.52891558,25.479399 C9.19601667,25.7578272 9.92186128,25.8962366 10.7032306,25.8962366 C11.4845999,25.8962366 12.1782563,25.7819684 12.783395,25.5550413 C13.3635879,25.3538649 13.8673337,25.0762414 14.2962419,24.7237803 C14.6993995,24.3954603 15.0148441,23.9802321 15.2417712,23.4748769 C15.4686982,23.0210228 15.5821617,22.5164723 15.5821617,21.96203 C15.5821617,21.4325336 15.5065194,20.9408584 15.3552347,20.4870044 C15.2288959,20.033955 14.977023,19.6050468 14.5988112,19.2010845 C14.2205995,18.7472305 13.7031737,18.319127 13.0481432,17.9159694 C12.3166657,17.4363648 11.4845999,16.9575648 10.5519459,16.4787649 C9.51789898,15.9484638 8.58524498,15.3811462 7.75317921,14.7760075 C6.9718099,14.2223699 6.3030994,13.6035511 5.74865712,12.9235748 C5.21916072,12.241989 4.81600313,11.5113161 4.53837964,10.7291421 C4.26075614,9.92282692 4.12234675,9.01511881 4.12234675,8.00601777 C4.12234675,6.87138262 4.37421966,5.82526511 4.87877018,4.86686053 C5.35757012,3.93501124 6.05122649,3.11501606 6.95893461,2.40848439 C7.8915886,1.7277033 9.00127787,1.1982069 10.2871977,0.820799892 C11.5980634,0.441783471 13.0610185,0.252677614 14.6744536,0.252677614 C16.2122463,0.252677614 17.5359873,0.366141128 18.6456766,0.593068157 C19.7545612,0.820799892 20.6880199,1.12336926 21.4444433,1.50077627 C22.2258126,1.90473857 22.7931302,2.35859263 23.146396,2.86314315 C23.4996618,3.39183485 23.6758924,3.94708183 23.6758924,4.52646999 C23.6758924,5.56051691 23.2598595,6.36763681 22.4277937,6.94702496 C21.595728,7.55296841 20.2341658,7.85553779 18.3431072,7.85553779 C18.3431072,7.27534492 18.2795355,6.67020618 18.1540014,6.03931685 C18.0276626,5.43417811 17.8136108,4.86686053 17.5110415,4.33816884 C17.2084721,3.80786773 16.8045098,3.39183485 16.300764,3.08926547 C15.7962134,2.73599964 15.1283076,2.56057378 14.2962419,2.56057378 C13.7667455,2.56057378 13.2372491,2.64828671 12.7077527,2.82532198 C12.1275598,3.00074784 11.6487599,3.24055016 11.2705482,3.54311953 C10.84164,3.87143949 10.4956165,4.27540179 10.2308683,4.75339702 C9.96531539,5.23300166 9.83334364,5.81319453 9.83334364,6.49317091 C9.83334364,7.17395199 9.94680716,7.74126957 10.1737342,8.19592833 C10.4006612,8.67472827 10.7346141,9.11570703 11.1763976,9.51886463 C11.6173763,9.92282692 12.1782563,10.3131092 12.8590374,10.6913209 C13.6154608,11.0952832 14.4097054,11.5113161 15.2417712,11.9394196 C17.3090603,12.9734665 18.8347825,14.120977 19.8181329,15.3811462 C20.8014834,16.6429249 21.2931586,18.0913953 21.2931586,19.7313856 C21.2931586,21.0680019 21.0284104,22.2645994 20.498914,23.3235922 C19.9694176,24.3584438 19.2258695,25.2404014 18.2674649,25.9710742 C17.2841144,26.6768012 16.0987828,27.2328529 14.7122748,27.6352058 C13.3257667,27.9884716 11.7871693,28.1647022 10.0980918,28.1647022" id="Fill-1" fill="#404040" mask="url(#mask-2)"></path>
                    </g>
                    <path d="M37.4423965,11.2807679 C36.7865613,11.2807679 36.1436013,11.5205702 35.5135167,11.9993702 C34.9333239,12.4532242 34.4038275,13.058363 33.9250275,13.8147864 C33.4462276,14.5470687 33.0358276,15.3783297 32.6962418,16.3109837 C32.3558513,17.2436377 32.096736,18.1521505 31.9205054,19.0341081 L32.2987171,19.0341081 C33.2820676,19.0341081 34.2147216,18.908574 35.0974838,18.6558964 C35.9544955,18.4289693 36.7109189,18.0757035 37.3667541,17.5969036 C38.0225893,17.1181036 38.5263351,16.5628566 38.879601,15.932772 C39.2578127,15.3026874 39.4469186,14.5840851 39.4469186,13.7769652 C39.4469186,12.9955959 39.2698833,12.3904572 38.9174222,11.961549 C38.5641563,11.507695 38.0724811,11.2807679 37.4423965,11.2807679 M36.005192,27.2791235 C36.6602225,27.2791235 37.2911118,27.1906058 37.8962505,27.0143753 C38.4506928,26.8381447 39.0051351,26.5983424 39.5603821,26.295773 C40.039182,26.0181495 40.4930361,25.6906343 40.9219442,25.3124225 C41.3251018,24.9599614 41.6654924,24.580945 41.9431159,24.1777874 C42.1193464,24.3797685 42.2456852,24.6187662 42.3213276,24.8963897 C42.4219158,25.198959 42.4726123,25.5144037 42.4726123,25.8419189 C42.4726123,26.295773 42.3213276,26.7753776 42.0187582,27.2791235 C41.6904383,27.783674 41.198763,28.2504033 40.5437325,28.6785068 C39.8629514,29.107415 39.0308857,29.4606808 38.0475352,29.7374996 C37.0134883,30.0151231 35.8032108,30.1535325 34.4167027,30.1535325 C33.1557288,30.1535325 31.9832725,29.9901772 30.8993338,29.6618573 C29.7896445,29.3351467 28.8191694,28.8555421 27.9871036,28.2246527 C27.1550378,27.5688175 26.5120779,26.7496271 26.0582239,25.7662766 C25.5786192,24.7829261 25.3396216,23.6233451 25.3396216,22.2867288 C25.3396216,21.3548795 25.4659604,20.3707244 25.7178333,19.3366774 C25.9946521,18.3034352 26.3986144,17.2943342 26.9281108,16.3109837 C27.4069107,15.3533839 28.0498706,14.4199252 28.8569905,13.512217 C29.6383598,12.6302595 30.5339974,11.8480855 31.5422937,11.1673044 C32.6012865,10.5122739 33.748797,9.9827775 34.9840203,9.57881521 C36.2699402,9.20060349 37.6564482,9.01149763 39.1443492,9.01149763 C41.0852995,9.01149763 42.5989511,9.40258464 43.6828898,10.1839539 C44.7418826,10.9653233 45.271379,12.0629419 45.271379,13.4743959 C45.271379,14.5084428 44.9688096,15.4917932 44.3636708,16.4244472 C43.7585321,17.3828518 42.913591,18.2149176 41.8296524,18.9206446 C40.7706596,19.6271762 39.497615,20.1936891 38.009714,20.6225973 C36.5218131,21.0523102 34.8955027,21.2655572 33.1307829,21.2655572 L32.4121807,21.2655572 C32.1603078,21.2655572 31.8947548,21.2534866 31.6179361,21.227736 C31.5921855,21.4804136 31.5801149,21.7322865 31.5801149,21.9841594 C31.555169,22.2110865 31.5422937,22.4380135 31.5422937,22.6649405 C31.5422937,24.1278956 31.9140678,25.2625308 32.6584206,26.068846 C33.4019688,26.8759659 34.517291,27.2791235 36.005192,27.2791235" id="Fill-4" fill="#404040"></path>
                    <path d="M52.0791898,12.6803927 C52.0791898,12.2265386 51.9150298,11.8861481 51.5875146,11.6584163 C51.2342488,11.4572399 50.6798065,11.355847 49.9233831,11.355847 L49.1669596,11.355847 L49.5451713,9.35132488 L58.5466101,9.35132488 L57.7145444,14.5714513 L57.9036502,14.5714513 C58.3824502,13.6379926 58.8491795,12.8308727 59.3030336,12.1508963 C59.7568876,11.4701152 60.2735087,10.8899223 60.8537016,10.4111224 C61.4081439,9.95726833 62.0511038,9.6048072 62.7825814,9.35132488 C63.5132542,9.10025668 64.3461247,8.97391787 65.2787787,8.97391787 C66.7159832,8.97391787 67.7878513,9.22579078 68.4935782,9.7303413 C69.1993052,10.2348918 69.552571,10.97844 69.552571,11.9609857 C69.552571,13.2726561 69.1486087,14.243936 68.3422936,14.8740206 C67.5102278,15.5298558 66.3120209,15.8565664 64.7492823,15.8565664 C64.7492823,15.3029288 64.7114611,14.785503 64.6358188,14.3067031 C64.5851223,13.8279031 64.4845341,13.4247455 64.3332494,13.0964256 C64.1819647,12.7938562 63.9799835,12.5419833 63.7281106,12.3400021 C63.4504871,12.1887174 63.1229719,12.1130751 62.7447602,12.1130751 C62.3407979,12.1130751 61.9376403,12.2522892 61.5344827,12.529108 C61.1313251,12.8067315 60.7024169,13.2098891 60.2485629,13.7385808 C59.8446006,14.243936 59.43581,14.8490747 59.0197771,15.553997 C58.6029396,16.2605287 58.2126573,17.0177568 57.8465161,17.824072 C57.4811797,18.6311919 57.1472268,19.5010788 56.8446574,20.4337328 C56.5420881,21.3156904 56.2773399,22.2242032 56.0504128,23.1568572 L54.4997448,29.7369363 L48.372715,29.7369363 L51.8144416,14.4579877 C51.8393875,14.4072913 51.890084,14.1304725 51.9657263,13.625922 C52.0413687,13.2726561 52.0791898,12.9580162 52.0791898,12.6803927" id="Fill-6" fill="#404040"></path>
                    <g id="Group-10" transform="translate(70.814108, 0.492721)">
                        <mask id="mask-4" fill="white">
                            <use xlink:href="#path-3"></use>
                        </mask>
                        <g id="Clip-9"></g>
                        <path d="M7.77748133,26.5976986 C8.2055848,26.5976986 8.59667181,26.5212516 8.94993764,26.3707716 C9.30320348,26.2186822 9.71843166,25.9917552 10.1980363,25.6891858 L11.1813868,26.9759103 C10.8281209,27.3283714 10.4627845,27.6558867 10.0845728,27.9584561 C9.6548599,28.2610254 9.18893526,28.5394536 8.68518944,28.7913266 C8.17983421,29.0431995 7.61332135,29.2443759 6.98323672,29.3964653 C6.37809798,29.5469453 5.69731689,29.6233923 4.94089347,29.6233923 C3.37735014,29.6233923 2.17994795,29.2765641 1.34788217,28.5829078 C0.515816402,27.8892514 0.0997835162,26.9252139 0.0997835162,25.6891858 C0.0997835162,24.6309977 0.313835253,23.1302214 0.742743431,21.1884664 L4.29793355,5.56832256 C4.32287943,5.39209199 4.3607006,5.22793202 4.41139706,5.07745204 C4.43634294,4.87547089 4.46128882,4.71211561 4.48703941,4.58577681 C4.53693117,4.3339039 4.56268175,4.1946898 4.56268175,4.16974392 L4.56268175,3.94281689 C4.56268175,3.58955106 4.52486058,3.31192756 4.44921824,3.11075112 C4.37357589,2.88301938 4.24723709,2.71966411 4.07100652,2.61827118 C3.86902537,2.49273708 3.64209834,2.41709474 3.39022543,2.39214886 C3.11260194,2.3414524 2.78508669,2.31570181 2.40687498,2.31570181 L1.53698803,2.31570181 L1.95302092,0.311984429 L11.7865255,0.311984429 L6.94541555,21.2262875 C6.76838028,21.8829275 6.62997089,22.5250827 6.52938267,23.155972 C6.42798974,23.7611107 6.37809798,24.3284283 6.37809798,24.8579247 C6.37809798,25.412367 6.49719444,25.8412752 6.73780146,26.1438445 C6.97679908,26.4464139 7.32362727,26.5976986 7.77748133,26.5976986" id="Fill-8" fill="#404040" mask="url(#mask-4)"></path>
                    </g>
                    <g id="Group-13" transform="translate(84.494106, 8.539779)">
                        <mask id="mask-6" fill="white">
                            <use xlink:href="#path-5"></use>
                        </mask>
                        <g id="Clip-12"></g>
                        <path d="M9.75512624,18.9663518 C10.4857991,18.9663518 11.1416343,18.777246 11.7218272,18.3990343 C12.3269659,17.9958767 12.8564623,17.4784509 13.3103164,16.8483662 C13.7891163,16.1933357 14.2051492,15.4626629 14.558415,14.6547383 C14.8851256,13.8226725 15.1635538,12.9785362 15.3904808,12.1207198 C15.6174078,11.2637082 15.7807631,10.4187671 15.882156,9.58670132 C16.0076901,8.75463555 16.0712619,7.99821212 16.0712619,7.31662633 C16.0712619,5.80458417 15.7928337,4.73352079 15.2391961,4.10263146 C14.6839491,3.44760096 13.9275257,3.119281 12.9699258,3.119281 C12.2891447,3.119281 11.6582554,3.29551156 11.0788672,3.6487774 C10.4986744,4.00204324 9.96917798,4.50578905 9.49037804,5.16162426 C9.0107734,5.766763 8.59474051,6.47329467 8.24227938,7.27960986 C7.86406767,8.11167563 7.5614983,8.93086611 7.33457127,9.73798601 C7.08189365,10.5700518 6.8927878,11.4278681 6.76725369,12.3098257 C6.66586077,13.1418914 6.61596901,13.9232607 6.61596901,14.6547383 C6.61596901,16.1933357 6.8927878,17.3022203 7.44803478,17.9830014 C8.00247706,18.6388366 8.77177578,18.9663518 9.75512624,18.9663518 M0.375475715,13.709209 C0.375475715,12.7508044 0.49457217,11.761821 0.735179197,10.7398447 C0.974176813,9.71947778 1.33307559,8.72968967 1.81268023,7.77128509 C2.29148017,6.78793463 2.89661891,5.85528064 3.62809646,4.9725184 C4.38451989,4.09056087 5.24153154,3.33333274 6.19993612,2.70324811 C7.20742775,2.02246703 8.32999231,1.49297063 9.56602038,1.11475891 C10.8519402,0.736547197 12.2513236,0.547441339 13.7641704,0.547441339 C14.9237514,0.547441339 16.0205654,0.698726025 17.0546123,1.0012954 C18.0878546,1.30386477 18.989125,1.77703177 19.7584237,2.41999168 C20.5277225,3.06214689 21.1392989,3.89501737 21.5931529,4.91538429 C22.047007,5.93736063 22.273934,7.15327106 22.273934,8.56552969 C22.273934,9.47323781 22.1604705,10.4324471 21.9335435,11.439134 C21.7066164,12.4232892 21.3533506,13.4066396 20.8745507,14.3899901 C20.394946,15.3733406 19.8026826,16.3059946 19.0969556,17.1887568 C18.3904239,18.0457684 17.5334123,18.8150672 16.5251159,19.4958482 C15.5417655,20.1766293 14.4320762,20.719001 13.1968528,21.1221586 C11.9608248,21.4995656 10.5614414,21.6894762 8.99870281,21.6894762 C7.71278298,21.6894762 6.55239725,21.5261209 5.51915504,21.1969963 C4.43441165,20.8702857 3.52670353,20.3786105 2.79603069,19.7219706 C2.03960726,19.0677448 1.4465391,18.235679 1.01843563,17.226578 C0.589527452,16.2182816 0.375475715,15.0458253 0.375475715,13.709209" id="Fill-11" fill="#404040" mask="url(#mask-6)"></path>
                    </g>
                </g>
                <path d="M52.9991525,35.2038028 C52.2712642,35.2038028 51.8898888,34.8393305 51.8571391,34.1114423 C51.823333,33.3508043 52.1878053,32.9535823 52.9494997,32.9197761 L52.9991525,32.9197761 C53.7270407,32.9197761 54.1073597,33.2853049 54.1411658,34.0121367 C54.1411658,34.3100533 54.0334088,34.5752201 53.8178947,34.8065808 C53.6023806,35.038998 53.3298187,35.1721096 52.9991525,35.2038028 Z M43.4658236,30.0399164 C43.3992678,29.974417 43.332712,29.8096121 43.2672126,29.5444453 C42.6713795,27.8551952 41.8103797,26.2008077 40.6852694,24.5781134 C39.7577137,23.3209479 38.5502009,22.0796291 37.0606183,20.8541568 C35.437924,19.5631852 33.088398,18.0239498 30.0099272,16.2364507 C27.5600392,14.8134239 25.4577204,13.3407443 23.7040274,11.8173555 C21.9820276,10.3277729 20.7079591,8.83819028 19.8807653,7.34860765 C18.5232379,4.86596993 17.8111962,2.830207 17.7456969,1.2423753 C17.7118907,0.943402333 17.7287938,0.778597446 17.7953496,0.744791316 C17.8280993,0.678235496 17.9443079,0.79444407 18.1429189,1.0923606 C18.8708071,2.31783283 19.7973064,3.44399956 20.9234731,4.46874789 C22.743722,6.15694154 25.0774014,7.72998306 27.9245115,9.18575956 C31.0684817,10.7746477 33.4021611,12.0159666 34.9255499,12.9097161 C37.7061041,14.5651601 40.2214915,16.5343672 42.4727685,18.8183939 C43.2334065,19.612838 43.6971843,20.1431716 43.8630457,20.407282 C43.8630457,20.4748943 43.7309905,20.5900464 43.4658236,20.7548513 C42.6048237,21.285185 41.976241,21.8313653 41.579019,22.3933922 L41.5293662,22.4926977 L41.77763,22.2940867 C42.3396569,21.7648095 43.0516985,21.3010316 43.9126984,20.9038096 L44.2106149,20.8045041 L44.6574897,21.3506844 C45.2533228,22.1451284 45.6832945,22.7906143 45.9484613,23.2871418 C46.1132662,23.5533651 46.1967251,23.7012669 46.1967251,23.735073 C46.1967251,23.7678227 46.1470724,23.7836693 46.0477668,23.7836693 C45.5512393,23.9157245 45.005059,24.2146975 44.409226,24.6774189 C43.9454481,25.0418913 43.7140874,25.2743084 43.7140874,25.3725575 C43.7468371,25.3725575 43.8788923,25.3398078 44.1113094,25.2743084 C44.7071425,25.0418913 45.3357252,24.9256827 45.9981141,24.9256827 C46.2960306,24.9256827 46.5939471,24.9594888 46.8918637,25.0249882 C47.5531961,25.2235992 47.8849188,25.3725575 47.8849188,25.471863 C47.8849188,25.5046127 47.7359605,25.5880716 47.438044,25.7201268 C46.5442944,26.2166543 45.7498503,26.7966407 45.0547118,27.4579732 C44.2602677,28.1858614 43.7795868,28.9317092 43.6147819,29.6923471 C43.5482261,29.9247643 43.4985733,30.0399164 43.4658236,30.0399164 Z M41.976241,35.9982469 C42.1410459,32.8880829 41.4131576,29.8582084 39.7915198,26.9117929 C39.0963812,25.8194323 38.3515899,24.7936275 37.5571458,23.8333221 C36.4975349,22.641656 35.2065633,21.483796 33.684231,20.3576293 C31.9622312,19.1332135 30.5719541,18.2394639 29.5133996,17.6763806 C29.3147886,17.577075 29.1415322,17.4777695 28.9915175,17.378464 C28.8425592,17.2791585 28.6693028,17.1640064 28.4706918,17.0308947 C28.2720808,16.8988396 28.0481152,16.7498813 27.7998514,16.58402 C27.5526441,16.4192151 27.2948723,16.2544102 27.0307619,16.0874924 C26.7655951,15.9226875 26.4845816,15.7314716 26.1866651,15.5159575 C25.8887486,15.3014999 25.590832,15.0944373 25.2929155,14.8958263 C23.4388605,13.572105 21.8499724,12.0159666 20.5262511,10.2284674 C19.731807,9.20371906 19.0366685,7.99409345 18.4408354,6.60381633 C17.7456969,4.98323494 17.3146687,3.40913699 17.1498638,1.88680467 C17.7118907,4.30394301 18.4904882,6.35555256 19.4835433,8.04374621 C20.3772928,9.43402333 21.5689589,10.8581066 23.0585416,12.3138831 C23.1905968,12.4131886 23.322652,12.5124941 23.4557636,12.6117996 C23.5878188,12.7111051 23.7283255,12.8347088 23.8783402,12.9847235 C24.0262421,13.1326253 24.2005549,13.28264 24.3991659,13.4315983 C24.597777,13.5795001 24.796388,13.7379663 24.994999,13.9027712 C25.19361,14.0686326 25.4080677,14.2334374 25.6404848,14.4003552 C25.8718455,14.5651601 26.0704565,14.7141184 26.2363179,14.8461736 L26.8818037,15.2433956 C27.9741643,15.9723403 28.6693028,16.4192151 28.9672193,16.58402 C29.1320242,16.6833255 29.2904905,16.7752359 29.4383923,16.8576383 C29.5873506,16.9400408 29.7616634,17.0477978 29.9602744,17.179853 C30.1588854,17.3119082 30.3817946,17.4524149 30.6300584,17.6024296 C30.8793786,17.7503315 31.143489,17.9172492 31.4255589,18.0989572 C31.7055159,18.2806651 32.0034325,18.4792762 32.318252,18.6947902 C32.6330716,18.9103043 32.9468348,19.124762 33.2616544,19.3392196 C33.576474,19.5547337 33.9071402,19.7860944 34.2547095,20.0354146 C34.6022787,20.2836784 34.9255499,20.5234906 35.2234664,20.7548513 C36.8123545,21.9465174 38.1033261,23.1381835 39.0963812,24.3298496 C39.5929088,24.892933 40.1390891,25.7201268 40.7349221,26.8135438 C41.8600324,28.897903 42.572074,31.1491801 42.8699906,33.565262 L43.2175598,38.7788012 L41.976241,35.9982469 Z M41.4797134,32.2753468 C40.519408,30.7847077 39.344645,29.7250968 37.9543679,29.0965141 C37.4240342,28.8324037 36.8451042,28.6675988 36.2165215,28.5999865 C36.0506602,28.5682933 35.8023964,28.5503338 35.4717302,28.5503338 L35.1738136,28.5503338 L34.4786751,28.5999865 L34.4786751,28.2027645 C34.4459254,27.342821 34.06455,26.5642236 33.3366617,25.869085 L33.1380507,25.6715304 L33.3366617,25.5711685 C33.7666335,25.3725575 34.3297168,25.2405023 35.0248554,25.1739465 C35.3555216,25.1739465 35.5372295,25.1580998 35.5710357,25.1242937 C35.5372295,25.0926005 35.2889658,25.074641 34.8262444,25.074641 L34.6772861,25.074641 C34.2135082,25.074641 33.684231,25.1422532 33.088398,25.2743084 L32.7408287,25.3725575 L32.2939539,25.1242937 C31.6981208,24.6953784 30.9860792,24.2801969 30.1588854,23.8829749 C29.7944131,23.6843638 29.6127052,23.5681553 29.6127052,23.5354056 C29.6127052,23.4361001 30.1588854,23.3040449 31.251246,23.1381835 C31.9791343,23.0061283 32.7408287,22.940629 33.5352727,22.940629 C33.9324948,22.940629 34.2959107,22.9733786 34.6276333,23.038878 L34.7269389,23.038878 C34.7269389,23.0061283 34.5610775,22.9564756 34.2304113,22.8899198 C33.6345783,22.7906143 32.9721894,22.7409615 32.2443011,22.7409615 C31.1519405,22.7409615 30.1250793,22.8571701 29.1658304,23.0885308 L28.7189556,23.1878363 L27.7755532,22.641656 C25.4249707,21.3844905 23.521263,20.208671 22.0654865,19.1163104 C20.7407087,18.0915621 19.6155985,17.0647009 18.6890992,16.0378397 C17.9939606,15.2433956 17.6463913,14.8134239 17.6463913,14.746868 C17.6463913,14.7141184 17.5132797,14.5155073 17.2491693,14.151035 C15.8588922,12.0666758 15.1299475,9.8650515 15.0644481,7.54721866 C14.9978923,5.82627533 15.2789058,4.12117861 15.9085449,2.43298496 C16.504378,0.811347135 16.9343497,0 17.1995166,0 C17.2322662,0 17.2650159,0.347569281 17.2988221,1.04270784 C17.3315718,1.7378464 17.3981276,2.31783283 17.4974331,2.78161069 C17.9274048,4.99908157 18.8211544,7.19964938 20.1786818,9.38542702 C20.6752094,10.146065 21.1875835,10.8581066 21.7179172,11.519439 C23.2074998,13.3407443 25.9056516,15.4420066 29.8113162,17.8253388 C31.7308705,18.9515055 33.3028556,19.9773103 34.5283278,20.9038096 C35.8192994,21.864115 36.9444097,22.9068228 37.9047151,24.0319331 C38.7984647,25.0926005 39.5760057,26.2842666 40.2383946,27.6079879 C40.899727,28.9317092 41.3635049,30.2385274 41.6286717,31.529499 C41.7607269,32.2584437 41.8103797,32.6387627 41.77763,32.6725688 C41.7438238,32.6725688 41.6445183,32.5405136 41.4797134,32.2753468 Z M42.174852,38.9277594 C39.5929088,38.7957042 37.0268122,38.5146908 34.4786751,38.084719 C30.2740376,37.388524 26.550081,36.4134285 23.3068053,35.1541501 C21.4200007,34.4273183 19.7814598,33.6476644 18.3911827,32.8204706 C16.3385167,31.5960548 15.2303094,30.4371384 15.0644481,29.3447778 C14.9978923,28.7161951 15.2461561,28.1858614 15.8092394,27.7558897 C16.702989,27.0935008 18.1756686,26.6635291 20.2283346,26.4659745 C22.6444165,26.2663071 24.1836519,26.1342519 24.8460407,26.0687525 C25.9384013,25.9683905 26.748692,25.8373918 27.2790257,25.6715304 C27.4110809,25.6377243 27.5431361,25.5880716 27.6762477,25.5215157 C27.8421091,25.4549599 27.9245115,25.3567109 27.9245115,25.2235992 C27.9572612,25.1580998 27.9403581,25.0926005 27.8748587,25.0249882 C27.2124699,24.495711 25.4080677,23.8174755 22.4627085,22.9892253 C22.3961527,22.9564756 22.3211453,22.9321774 22.2387429,22.9142179 C22.1563405,22.8994277 22.0982362,22.8899198 22.0654865,22.8899198 C20.9065701,22.5592535 18.6890992,21.9792671 15.4120174,21.1520734 C15.2134064,21.086574 14.9651426,21.0200182 14.6672261,20.9534623 C14.3693096,20.8869065 14.1865452,20.8541568 14.1210458,20.8541568 C15.8419891,21.0527679 18.0098073,21.4341433 20.6255566,21.9961702 C22.6116668,22.4261419 24.2502077,22.8571701 25.5411793,23.2871418 C27.1955668,23.8502252 28.2879274,24.3974619 28.8182611,24.9256827 C28.9503163,25.1242937 28.999969,25.3070581 28.9672193,25.471863 C28.9006635,25.6715304 28.6523998,25.852182 28.222428,26.0180433 L28.1727753,26.0180433 C26.9811092,26.4490715 24.8460407,26.8293904 21.76757,27.1600566 C20.9393198,27.2266125 20.1617788,27.342821 19.4338905,27.5076259 C17.8777521,27.904848 17.083308,28.4182786 17.0505583,29.0468613 C17.0505583,29.9416673 18.0436134,30.9664157 20.0297236,32.1253321 C22.0813331,33.3169982 24.6632763,34.359706 27.7755532,35.2534556 C31.7150239,36.3785659 36.117216,36.9585523 40.9831859,36.991302 L42.174852,38.9277594 Z M41.5293662,48.3617828 C41.3307552,48.3617828 41.0824914,48.3448797 40.7845749,48.31213 C38.06952,48.2793803 35.3227719,47.7490466 32.5422177,46.7232419 C29.2651359,45.4977696 26.4180258,44.1582017 24.0019439,42.7013688 C21.1875835,41.0131751 18.6056403,39.6725507 16.2561142,38.6794957 C14.1041427,37.7857461 12.1011295,37.108567 10.2481309,36.6437327 C8.36132628,36.1810113 6.6393265,35.9485942 5.08424449,35.9485942 L4.5380642,35.9485942 C3.18053676,35.9813439 2.00577372,36.1810113 1.01271864,36.5454837 C0.846857307,36.610983 0.730648733,36.6437327 0.665149354,36.6437327 L0.6154966,36.6437327 C0.648246289,36.5454837 0.846857307,36.3637757 1.21132965,36.0975524 C2.26988412,35.3031084 3.70981399,34.7896777 5.53111928,34.558317 C6.0931462,34.4590115 6.83793752,34.4093588 7.76549323,34.4093588 C8.98990902,34.4093588 9.99986718,34.476971 10.7943112,34.6090262 C12.7466153,34.9396925 15.3623646,35.7668862 18.6394464,37.0906075 C20.3931395,37.8195522 22.0982362,38.5801901 23.7536801,39.3746342 C25.0446517,40.0042734 26.2859706,40.5504537 27.4776367,41.0131751 C29.9602744,41.9396744 32.2443011,42.6844657 34.3297168,43.2475491 C35.8847988,43.6775208 37.5729925,43.9257845 39.3942978,43.9923404 C39.5591026,44.0250901 39.7577137,44.0419931 39.9901308,44.0419931 C41.8431293,44.0419931 43.2830592,43.9257845 44.3099204,43.6944238 C45.2691694,43.4968693 46.162919,43.2475491 46.9911692,42.9496325 C48.414196,42.453105 50.0358338,41.6090082 51.8571391,40.4183985 C53.3794714,39.424287 54.6873461,38.4153853 55.7797067,37.388524 C56.2096784,36.991302 56.6565532,36.6437327 57.1203311,36.3458162 C57.682358,36.0162064 58.1957886,35.7837893 58.6595665,35.6506776 L58.957483,35.5513721 L58.758872,35.4024139 C57.8651224,34.9058863 57.103428,34.1452484 56.4748453,33.1183872 C56.0438171,32.4559983 55.5145399,31.9605272 54.8859571,31.6288045 C54.2235683,31.2991948 53.5284297,31.132277 52.8005414,31.132277 L52.4529722,31.132277 C51.3933613,31.1660831 50.268251,31.4967493 49.0765849,32.1253321 C48.6455567,32.3577492 48.3983494,32.4729014 48.3317935,32.4729014 C48.2979874,32.4412081 48.4965984,32.2246376 48.9276266,31.8274155 C49.3248486,31.4639996 49.6724179,31.1819297 49.9703344,30.9833187 C50.665473,30.4867912 51.3606116,30.1223188 52.0557501,29.8909581 C52.3864163,29.7916526 52.8670973,29.7250968 53.49568,29.6923471 L54.0418603,29.6923471 C54.273221,29.6923471 54.5214848,29.7250968 54.7866516,29.7916526 C55.945568,30.0568195 57.0210256,30.7361114 58.0140806,31.8274155 C59.4371075,33.5156092 60.6615233,34.4928177 61.6883845,34.7569281 L61.986301,34.8562336 C61.986301,34.8900397 61.8373427,34.9724421 61.5394262,35.1044973 C60.711176,35.5344691 59.8512326,36.0648027 58.957483,36.6933855 C57.5672059,37.7202467 56.2920809,39.0767177 55.1342209,40.7649113 C53.9087487,42.5196608 52.3695133,44.0092434 50.5165147,45.2336592 C48.232488,46.7897977 45.6674479,47.7817963 42.8203378,48.2128245 C42.3238103,48.31213 41.8927821,48.3617828 41.5293662,48.3617828 Z" id="Fill-1" fill="#007EC1"></path>
            </g>
        </g>
    </g>
</svg>