<?xml version="1.0" encoding="UTF-8"?>
<svg width="242px" height="86px" viewBox="0 0 242 86" version="1.1" xmlns="http://www.w3.org/2000/svg" xmlns:xlink="http://www.w3.org/1999/xlink">
    <!-- Generator: Sketch 50.2 (55047) - http://www.bohemiancoding.com/sketch -->
    <title>logo/splish</title>
    <desc>Created with Sketch.</desc>
    <defs>
        <linearGradient x1="8.76292897%" y1="3.45338429%" x2="87.8952673%" y2="81.8590679%" id="linearGradient-1">
            <stop stop-color="#C4DFFF" offset="0%"></stop>
            <stop stop-color="#469BFF" offset="100%"></stop>
        </linearGradient>
    </defs>
    <g id="logo/splish" stroke="none" stroke-width="1" fill="none" fill-rule="evenodd">
        <g id="Splish-Logo" transform="translate(32.000000, 25.000000)" fill-rule="nonzero">
            <g id="Splish">
                <path d="M0,24.1136819 C0,24.8255611 0.576720478,25.4024428 1.28827756,25.4024428 C1.99967354,25.4024428 2.57639403,24.8255611 2.57639403,24.1136819 C2.57639403,23.4019638 1.99967354,22.8249211 1.28827756,22.8249211 C0.576720478,22.8249211 0,23.4019638 0,24.1136819" id="Fill-7" fill="#ABD1FE"></path>
                <path d="M30.0356991,2.94465743 C30.2140314,3.16423007 31.7030334,4.65597073 31.8684781,4.83365863 C35.5280756,8.76212387 21.4936312,2.28513406 21.4936312,2.28513406 C21.4936312,2.28513406 19.015183,1.05501184 18.1399533,1.92154241 C17.2698786,2.78324013 18.18361,4.60587015 18.5306089,5.21787046 C18.5955301,5.33257017 20.1542865,7.55278292 18.4474837,8.53900715 C16.928357,9.41697548 10.0139939,4.27820271 10.0139939,4.27820271 C10.0139939,4.27820271 6.57815753,1.668462 4.81432723,2.73700584 C3.05081911,3.80522747 7.4907613,11.243794 7.4907613,11.243794 C7.4907613,11.243794 9.15567922,14.3777381 7.79893624,14.9977932 C6.65983275,15.5182915 5.20659381,13.7433456 4.77179812,13.4019851 C4.69688888,13.3431854 1.63479313,9.93441294 0.669672352,12.2728695 C-0.555133733,15.2404024 1.44099572,18.4690705 1.63479313,18.9660489 C1.65138592,19.0084169 6.13627366,25.3420321 5.37735461,28.3438783 C5.07997304,29.520517 4.48649868,28.7783518 3.74095053,28.0363477 C2.96817731,27.2674407 2.03157037,26.4982116 1.09141934,27.8655869 C-1.26878505,31.2986847 2.10406318,41.7070395 8.15012356,47.5939379 C13.3726658,52.6789049 20.150259,55.9000015 27.8942618,55.9000015 C35.8383448,55.9000015 42.7670452,52.6677893 47.7825803,47.631473 C52.7979543,42.5948345 55.9000015,35.753931 55.9000015,27.8655869 C55.9000015,20.0144559 52.3085472,12.595543 47.804167,8.16011147 C46.8269641,7.19789039 42.4147302,2.14095396 31.3444357,0.799031722 C31.2978792,0.793232298 31.249873,0.789043825 31.2029942,0.788399445 C31.1862404,0.788077255 31.1696475,0.78791616 31.1533769,0.78791616 C29.6474599,0.78791616 29.3626437,2.11582312 30.0356991,2.94465743" id="Fill-1" fill="url(#linearGradient-1)"></path>
                <path d="M25.3782785,1.29149946 C25.3782785,2.00482859 25.945011,2.58299892 26.6440027,2.58299892 C27.3431555,2.58299892 27.9097271,2.00482859 27.9097271,1.29149946 C27.9097271,0.578170333 27.3431555,0.000161095105 26.6440027,0.000161095105 C25.945011,0.000161095105 25.3782785,0.578170333 25.3782785,1.29149946" id="Fill-4" fill="#ABD1FE"></path>
            </g>
            <g id="Group" transform="translate(60.905972, 9.177612)" fill="#666666">
                <path d="M13.3410528,36.3767174 C7.75717568,36.3767174 3.31020257,34.8776918 0,31.8795958 L1.55478434,28.7316106 C3.32691299,30.2306586 5.13245095,31.2966324 6.97145238,31.9295638 C8.81045381,32.5624951 10.9503507,32.8789562 13.3912071,32.8789562 C16.2667366,32.8789562 18.4818642,32.3209856 20.0366564,31.2050275 C21.5914483,30.0890696 22.3688328,28.5150927 22.3688328,26.4830497 C22.3688328,25.2838113 21.992679,24.3094447 21.2403603,23.5599207 C20.4880415,22.8103966 19.5016829,22.2191144 18.2812547,21.7860561 C17.0608265,21.3529976 15.4308269,20.90329 13.3912071,20.4369196 C10.6494231,19.8373003 8.39250069,19.1877226 6.62037204,18.4881668 C4.84824339,17.7886111 3.41050021,16.7809328 2.30709936,15.4651017 C1.20369849,14.1492706 0.652006338,12.4253912 0.652006338,10.2934118 C0.652006338,8.26136888 1.18698055,6.47086614 2.25694501,4.92184981 C3.32690948,3.3728335 4.83988342,2.16528512 6.79591221,1.29916848 C8.751941,0.433051829 11.0339404,0 13.6419788,0 C16.1162716,0 18.4233478,0.383084311 20.5632768,1.14926442 C22.7032058,1.91544454 24.5087438,3.03138578 25.9799449,4.49712167 L24.3750061,7.64510682 C22.7031867,6.21268313 21.0063153,5.16336523 19.2843413,4.49712167 C17.5623673,3.83087808 15.6815985,3.4977613 13.6419788,3.4977613 C10.8667584,3.4977613 8.6934257,4.0890436 7.12191538,5.27162595 C5.55040506,6.45420829 4.76466169,8.07815266 4.76466169,10.1435077 C4.76466169,11.9423654 5.4500974,13.2914884 6.82098939,14.1909172 C8.19188136,15.0903461 10.2983423,15.8731705 13.1404354,16.5394141 C16.2165833,17.272282 18.6323262,17.9468435 20.3877366,18.5631188 C22.1431472,19.1793941 23.6059673,20.1121212 24.7762408,21.3613279 C25.9465145,22.6105346 26.5316425,24.2677906 26.5316425,26.3331458 C26.5316425,28.3318764 25.9966683,30.0890676 24.9267039,31.6047717 C23.8567393,33.1204757 22.3270475,34.2947125 20.3375823,35.1275169 C18.3481171,35.9603215 16.0159639,36.3767174 13.3410528,36.3767174 Z" id="Path"></path>
                <path d="M42.0561224,10.1788062 C44.2510317,10.1788062 46.1964905,10.7287042 47.8925569,11.8285166 C49.5886232,12.9283289 50.9022235,14.4697095 51.8333972,16.4527046 C52.7645708,18.4356997 53.2301507,20.726941 53.2301507,23.3264976 C53.2301507,25.9260541 52.7645708,28.200632 51.8333972,30.1502994 C50.9022235,32.0999666 49.5969371,33.6080202 47.9174988,34.674505 C46.2380607,35.7409896 44.2842881,36.274224 42.0561224,36.274224 C40.0940064,36.274224 38.3813377,35.8409711 36.9180649,34.9744522 C35.4547919,34.1079334 34.138028,32.8036085 33.3731352,31.2038814 L33.3731352,46.7223893 L29.5352247,46.7223893 L29.5352247,10.846269 L33.3762968,10.846269 L33.3762968,15.6278494 C34.0746771,13.8948117 35.1804293,12.553394 36.6935865,11.6035561 C38.2067438,10.6537181 39.9942378,10.1788062 42.0561224,10.1788062 Z M41.5690503,32.9248121 C44.0917848,32.9248121 46.0434658,32.0923511 47.4241516,30.4274041 C48.8048374,28.7624569 49.4951699,26.3982674 49.4951699,23.3347648 C49.4951699,20.2712622 48.7963148,17.8820989 47.3985835,16.1672035 C46.0008521,14.452308 44.0576938,13.5948731 41.5690503,13.5948731 C39.0122248,13.5948731 37.0520211,14.4273341 35.688381,16.0922812 C34.3247407,17.7572284 33.6429307,20.138067 33.6429307,23.2348685 C33.6429307,26.3316702 34.3247407,28.7208334 35.688381,30.4024299 C37.0520211,32.0840265 39.0122248,32.9248121 41.5690503,32.9248121 Z" id="Combined-Shape"></path>
                <polygon id="Path" points="56.4005986 35.8765958 56.4005986 0.667938105 60.4048003 0.667938105 60.4048003 35.8765958"></polygon>
                <rect id="Path" x="63.909554" y="0.667462705" width="5.00525218" height="5.00597029" rx="2.50262609"></rect>
                <polygon id="Path" points="64.410151 35.8761204 64.410151 10.846269 68.4143527 10.846269 68.4143527 35.8761204"></polygon>
                <path d="M81.5032688,36.4674595 C77.2790584,36.4674595 73.9363279,35.3800731 71.4749771,33.2052675 L72.822061,30.1940134 C74.1857824,31.2646868 75.566114,32.0342219 76.9630969,32.5026416 C78.3600798,32.9710612 79.9233469,33.2052675 81.6529448,33.2052675 C83.5488503,33.2052675 84.9873884,32.8790516 85.9686027,32.2266099 C86.9498169,31.5741682 87.4404167,30.6289785 87.4404167,29.3910122 C87.4404167,28.3872559 87.1078067,27.5842627 86.4425766,26.982009 C85.7773467,26.379755 84.6797337,25.9113424 83.1497048,25.576757 L78.9088848,24.5730056 C76.8134104,24.1045859 75.1919367,23.2681348 74.044415,22.0636271 C72.8968932,20.8591194 72.3231411,19.4204236 72.3231411,17.7474963 C72.3231411,15.5392321 73.2045575,13.7408622 74.967417,12.3523325 C76.7302764,10.9638028 79.0585463,10.2695484 81.9522969,10.2695484 C83.7151563,10.2695484 85.3782062,10.5539417 86.9414966,11.122737 C88.5047871,11.6915323 89.8185966,12.5112545 90.8829645,13.5819279 L89.5358806,16.5429945 C87.1743141,14.5689403 84.6464782,13.5819279 81.9522969,13.5819279 C80.1561759,13.5819279 78.7675291,13.9248729 77.7863149,14.6107731 C76.8051006,15.2966733 76.314501,16.2585921 76.314501,17.4965583 C76.314501,18.5337733 76.6221651,19.3534955 77.237503,19.9557492 C77.8528407,20.5580032 78.8423553,21.0264156 80.2060769,21.3610012 L84.4468967,22.4149401 C86.7752016,22.9502769 88.5047736,23.7783635 89.6356646,24.8992248 C90.7665555,26.0200861 91.3319926,27.4838757 91.3319926,29.2906372 C91.3319926,31.4654427 90.450576,33.205261 88.6877166,34.5101443 C86.9248571,35.8150277 84.5300652,36.4674595 81.5032688,36.4674595 Z" id="Path"></path>
                <path d="M107.279554,10.269073 C113.296799,10.269073 116.305376,13.5920318 116.305376,20.2380492 L116.305376,35.875645 L112.266196,35.875645 L112.266196,20.4384305 C112.266196,18.1006356 111.800781,16.3890613 110.869936,15.3036564 C109.939092,14.2182516 108.476358,13.6755573 106.481691,13.6755573 C104.15458,13.6755573 102.292919,14.3935836 100.896652,15.8296577 C99.5003851,17.2657319 98.8022622,19.202733 98.8022622,21.6407193 L98.8022622,35.875645 L94.7797041,35.875645 L94.7797041,0.667462705 L98.7690179,0.667462705 L98.8022622,14.9780366 C99.6001289,13.4417713 100.738734,12.2728913 102.218112,11.4713616 C103.69749,10.6698318 105.38462,10.269073 107.279554,10.269073 Z" id="Path"></path>
            </g>
        </g>
    </g>
</svg>